<svg width="19" height="19" viewBox="0 0 19 19" fill="none" xmlns="http://www.w3.org/2000/svg">
<path d="M9.4978 0.269651C5.71551 0.269651 2.12385 -0.0668077 0.751971 3.45403C0.185305 4.90819 0.267596 6.79674 0.267596 9.5009C0.267596 11.8738 0.191555 14.104 0.751971 15.5467C2.12072 19.0697 5.74155 18.7322 9.49572 18.7322C13.1176 18.7322 16.852 19.1092 18.2405 15.5467C18.8082 14.078 18.7249 12.2176 18.7249 9.5009C18.7249 5.89465 18.9238 3.56653 17.1749 1.81861C15.404 0.0477755 13.0093 0.269651 9.49363 0.269651H9.4978ZM8.67072 1.93319C16.5603 1.92069 17.5645 1.04361 17.0103 13.228C16.8134 17.5374 13.5322 17.0644 9.49884 17.0644C2.14468 17.0644 1.93322 16.854 1.93322 9.49674C1.93322 2.05403 2.51655 1.93736 8.67072 1.93111V1.93319ZM14.4249 3.46548C13.8134 3.46548 13.3176 3.96132 13.3176 4.57278C13.3176 5.18424 13.8134 5.68007 14.4249 5.68007C15.0363 5.68007 15.5322 5.18424 15.5322 4.57278C15.5322 3.96132 15.0363 3.46548 14.4249 3.46548ZM9.4978 4.76028C6.88009 4.76028 4.75822 6.88319 4.75822 9.5009C4.75822 12.1186 6.88009 14.2405 9.4978 14.2405C12.1155 14.2405 14.2363 12.1186 14.2363 9.5009C14.2363 6.88319 12.1155 4.76028 9.4978 4.76028ZM9.4978 6.42382C13.5655 6.42382 13.5707 12.578 9.4978 12.578C5.43114 12.578 5.42489 6.42382 9.4978 6.42382Z" fill="white"/>
</svg>
